<?xml version="1.0" encoding="UTF-8"?>
<svg id="Layer_2" data-name="Layer 2" xmlns="http://www.w3.org/2000/svg" viewBox="0 0 410.631 454.127">
  <g id="Layer_1-2" data-name="Layer 1">
    <g>
      <path d="M205.315,318.562c-4.135,4.46-8.117,8.747-12.089,13.041-9.56,10.334-19.321,20.455-30.724,28.819-9.617,7.054-19.983,12.602-31.839,14.736-20.161,3.628-38.452-1.109-54.119-14.066-20.913-17.296-29.538-39.872-24.126-66.522,5.382-26.504,21.961-43.99,47.736-52.103,19.606-6.171,38.066-2.302,55.316,8.362,10.973,6.783,20.408,15.408,29.295,24.656,6.373,6.631,12.584,13.418,18.864,20.138.495.53.965,1.084,1.632,1.836,1.583-1.696,2.99-3.267,4.464-4.773,9.6-9.808,18.976-19.85,28.895-29.324,8.475-8.095,18.13-14.772,29.192-18.92,26.143-9.802,49.773-4.749,70.101,13.817,22.983,20.991,28.21,53.624,14.01,81.325-13.035,25.429-41.768,40.279-69.842,35.984-11.493-1.758-21.727-6.643-31.222-13.196-12.156-8.389-22.411-18.862-32.403-29.619-4.307-4.637-8.602-9.286-13.143-14.19ZM215.412,308.213c9.896,10.204,19.521,20.358,29.415,30.243,5.949,5.944,12.639,11.046,19.941,15.289,10.572,6.142,21.873,9.393,34.092,7.317,21.423-3.639,36.367-15.771,43.264-36.341,6.818-20.334,2.204-38.879-12.738-54.218-12.601-12.935-28.242-18.244-46.285-15.271-8.846,1.458-16.635,5.544-23.947,10.576-9.666,6.651-17.974,14.833-25.999,23.313-5.857,6.19-11.608,12.481-17.743,19.091ZM194.986,307.984c-5.751-6.205-11.269-12.265-16.905-18.213-8.996-9.493-18.267-18.681-29.375-25.78-12.07-7.713-25.053-11.675-39.363-8.656-19.951,4.209-33.913,16.011-40.637,35.22-6.721,19.202-3.129,37.151,10.254,52.478,12.784,14.643,29.171,20.853,48.596,17.705,9.887-1.603,18.422-6.444,26.387-12.316,10.897-8.034,20.133-17.833,29.291-27.709,3.888-4.193,7.759-8.402,11.753-12.73Z" style="fill: #fff; stroke: #fff; stroke-miterlimit: 10; stroke-width: 10px;"/>
      <path d="M107.241,148.691c-1.795-5.812-3.516-11.403-5.249-16.99-4.17-13.446-8.054-26.96-9.596-41.018-1.3-11.856-.923-23.607,3.158-34.941,6.939-19.274,20.187-32.746,39.241-39.835,25.435-9.463,49.299-5.644,69.673,12.368,20.262,17.913,27.116,41.014,21.254,67.392-4.459,20.065-17.039,34.117-34.899,43.724-11.361,6.111-23.548,9.969-36.001,13.042-8.929,2.203-17.912,4.189-26.872,6.267-.707.164-1.421.294-2.406.496.678,2.219,1.334,4.223,1.902,6.252,3.694,13.217,7.702,26.359,10.948,39.686,2.773,11.387,3.728,23.087,1.789,34.742-4.582,27.541-20.773,45.479-47.016,53.801-29.67,9.408-60.545-2.382-77.435-28.53-15.504-24.003-13.999-56.312,3.758-78.477,7.27-9.074,16.617-15.494,27.039-20.441,13.343-6.333,27.54-9.977,41.852-13.252,6.17-1.411,12.343-2.806,18.86-4.287ZM111.155,162.61c-13.785,3.468-27.391,6.726-40.899,10.352-8.122,2.18-15.886,5.422-23.211,9.625-10.605,6.084-19.071,14.247-23.383,25.866-7.56,20.372-4.525,39.381,9.84,55.639,14.201,16.072,32.568,21.348,53.323,16.077,17.502-4.445,29.921-15.336,36.367-32.448,3.161-8.39,3.516-17.178,2.814-26.027-.927-11.697-3.859-22.983-7.191-34.172-2.432-8.168-5.005-16.293-7.662-24.911ZM121.567,145.035c8.249-1.878,16.256-3.627,24.225-5.534,12.719-3.044,25.312-6.479,37.014-12.55,12.715-6.596,22.638-15.859,27.178-29.761,6.33-19.383,3.09-37.376-10.183-52.803-13.268-15.422-30.609-21.285-50.575-17.359-19.073,3.75-32.645,14.837-39.631,33.233-3.556,9.364-3.631,19.176-2.528,29.01,1.509,13.454,5.378,26.352,9.351,39.221,1.687,5.464,3.397,10.921,5.148,16.543Z" style="fill: #fff; stroke: #fff; stroke-miterlimit: 10; stroke-width: 10px;"/>
      <path d="M303.391,148.693c5.931,1.351,11.633,2.656,17.338,3.949,13.729,3.112,27.375,6.505,40.32,12.198,10.918,4.802,20.905,11.004,28.681,20.206,13.222,15.646,18.265,33.855,14.877,53.901-4.522,26.759-19.761,45.516-45.547,54.154-25.644,8.591-49.078,2.976-68.991-15.289-15.147-13.894-21.026-31.815-20.417-52.086.388-12.895,3.14-25.378,6.705-37.699,2.556-8.835,5.328-17.607,8.009-26.406.211-.694.456-1.378.774-2.332-2.26-.523-4.324-.956-6.365-1.479-13.294-3.409-26.679-6.509-39.843-10.362-11.248-3.292-21.858-8.315-30.982-15.821-21.56-17.739-28.999-40.73-23.084-67.618,6.687-30.399,32.335-51.243,63.425-52.796,28.539-1.426,55.767,16.033,66.084,42.493,4.224,10.833,5.11,22.138,4.183,33.637-1.187,14.722-5.129,28.839-9.45,42.871-1.862,6.049-3.741,12.092-5.718,18.477ZM289.38,145.123c3.889-13.672,7.87-27.085,11.484-40.595,2.173-8.124,3.247-16.468,3.27-24.914.034-12.226-2.802-23.639-10.709-33.183-13.863-16.734-31.842-23.61-53.104-19.298-21.019,4.263-34.772,17.531-40.585,38.141-4.901,17.38-1.679,33.58,9.917,47.719,5.686,6.932,13.119,11.634,21.132,15.451,10.593,5.046,21.833,8.149,33.189,10.859,8.289,1.978,16.613,3.812,25.405,5.82ZM299.395,162.927c-2.498,8.083-4.987,15.892-7.32,23.747-3.723,12.537-7.045,25.16-7.638,38.33-.645,14.309,2.415,27.534,12.185,38.417,13.621,15.174,30.823,21.364,50.82,17.583,19.99-3.78,33.738-15.866,40.321-35.119,6.289-18.393,3.474-35.69-8.965-50.938-6.332-7.761-14.791-12.732-23.859-16.694-12.406-5.42-25.51-8.519-38.642-11.512-5.575-1.271-11.156-2.518-16.901-3.814Z" style="fill: #fff; stroke: #fff; stroke-miterlimit: 10; stroke-width: 10px;"/>
    </g>
    <g>
      <path d="M146.453,434.687h-15.976c.36,1.29,1.064,2.311,2.115,3.06,1.051.751,2.355,1.125,3.916,1.125,2.099-.029,3.704-.585,4.814-1.665.299-.209.555-.225.765-.045l2.655,2.745c.209.21.225.436.045.675-1.951,2.041-4.801,3.061-8.55,3.061-3.36.029-6.075-.96-8.146-2.97-2.04-2.04-3.06-4.71-3.06-8.011,0-3.27,1.005-5.909,3.015-7.92,2.04-2.04,4.68-3.06,7.92-3.06,3.48,0,6.18,1.065,8.1,3.194,1.92,2.131,2.865,5.251,2.836,9.36,0,.301-.15.45-.45.45ZM130.387,430.862h11.16c-.27-1.38-.893-2.452-1.867-3.218-.975-.765-2.213-1.147-3.713-1.147s-2.738.383-3.713,1.147c-.975.766-1.597,1.838-1.867,3.218Z" style="fill: #fff; stroke-width: 0px;"/>
      <path d="M167.153,413.987c1.648,1.62,2.475,3.751,2.475,6.39s-1.02,4.711-3.061,6.21c2.881,1.65,4.32,4.111,4.32,7.381,0,2.91-.945,5.25-2.835,7.02-1.92,1.771-4.409,2.655-7.47,2.655s-5.551-.885-7.471-2.655c-1.889-1.77-2.834-4.109-2.834-7.02,0-3.24,1.424-5.7,4.274-7.381-2.04-1.499-3.06-3.569-3.06-6.21s.824-4.77,2.475-6.39,3.854-2.43,6.615-2.43c2.729,0,4.92.81,6.57,2.43ZM165.622,433.697c0-1.439-.466-2.58-1.396-3.42-.93-.9-2.13-1.35-3.6-1.35-1.5,0-2.73.465-3.689,1.395-.961.9-1.44,2.025-1.44,3.375s.479,2.476,1.44,3.375c.959.9,2.189,1.351,3.689,1.351,1.439,0,2.633-.45,3.578-1.351.944-.899,1.417-2.024,1.417-3.375ZM156.578,420.287c0,1.23.366,2.205,1.103,2.925.734.721,1.717,1.08,2.947,1.08,1.17,0,2.115-.366,2.835-1.103.72-.734,1.08-1.702,1.08-2.902s-.353-2.16-1.058-2.88-1.658-1.08-2.857-1.08c-1.23,0-2.213.36-2.947,1.08-.736.72-1.103,1.681-1.103,2.88Z" style="fill: #fff; stroke-width: 0px;"/>
      <path d="M173.903,440.492c0-.96.285-1.725.855-2.295.568-.569,1.334-.854,2.295-.854,1.379-.12,2.332.524,2.857,1.935.524,1.41.322,2.58-.607,3.51-.57.569-1.32.855-2.25.855s-1.688-.293-2.273-.878c-.584-.585-.877-1.342-.877-2.272Z" style="fill: #fff; stroke-width: 0px;"/>
      <path d="M186.907,422.492l3.105,13.59,3.78-13.59c.029-.27.181-.405.45-.405h3.734c.271,0,.45.136.541.405l3.734,14.175,3.061-14.22c.059-.239.209-.36.449-.36h4.86c.271,0,.374.136.315.405l-5.715,20.34c-.061.241-.226.36-.496.36h-4.59c-.27,0-.449-.119-.539-.36l-3.511-13.545-3.556,13.545c-.06.241-.24.36-.539.36h-4.41c-.27,0-.45-.119-.54-.36l-5.761-20.34c-.029-.27.075-.405.316-.405h4.859c.24,0,.39.136.449.405Z" style="fill: #fff; stroke-width: 0px;"/>
      <path d="M223.403,421.547c3.27,0,5.924,1.02,7.965,3.06,2.04,2.04,3.061,4.695,3.061,7.965,0,3.301-1.021,5.971-3.061,8.01-2.041,2.041-4.695,3.061-7.965,3.061s-5.926-1.02-7.965-3.061c-2.01-2.009-3.016-4.68-3.016-8.01,0-3.3,1.006-5.955,3.016-7.965,2.039-2.04,4.694-3.06,7.965-3.06ZM217.553,432.617c0,1.771.539,3.203,1.619,4.298,1.08,1.096,2.49,1.643,4.23,1.643,1.77,0,3.195-.547,4.275-1.643,1.08-1.095,1.619-2.527,1.619-4.298,0-1.8-.539-3.24-1.619-4.319-1.08-1.08-2.506-1.62-4.275-1.62s-3.188.54-4.252,1.62c-1.066,1.079-1.598,2.52-1.598,4.319Z" style="fill: #fff; stroke-width: 0px;"/>
      <path d="M249.143,427.442c-.931-.42-1.876-.63-2.836-.63-.72,0-1.41.225-2.07.675s-1.186,1.08-1.574,1.89v13.365c0,.301-.15.45-.45.45h-4.229c-.301,0-.451-.149-.451-.45v-20.205c0-.299.15-.45.451-.45h2.924c.361,0,.556.151.586.45l.449,1.396c1.531-1.53,3.314-2.295,5.355-2.295.811,0,1.891.18,3.24.54.299.09.404.285.314.585l-1.08,4.41c-.061.33-.27.42-.629.27Z" style="fill: #fff; stroke-width: 0px;"/>
      <path d="M258.997,411.152v31.59c0,.301-.136.45-.405.45h-4.275c-.27,0-.404-.149-.404-.45l-.045-31.59c0-.3.149-.45.449-.45h4.23c.3,0,.45.15.45.45Z" style="fill: #fff; stroke-width: 0px;"/>
      <path d="M272.858,443.687c-3.18,0-5.746-1.02-7.695-3.061-1.95-2.039-2.925-4.694-2.925-7.965s.975-5.924,2.925-7.965c1.92-2.01,4.484-3.015,7.695-3.015,2.729,0,4.844.944,6.345,2.835v-13.41c0-.3.136-.45.405-.45h4.23c.299,0,.449.15.449.45v31.635c0,.301-.15.45-.449.45h-3.016c-.24,0-.42-.135-.54-.405l-.675-2.475c-1.591,2.25-3.841,3.375-6.75,3.375ZM279.158,432.662c0-1.77-.556-3.202-1.665-4.297-1.11-1.095-2.551-1.643-4.32-1.643-1.74,0-3.149.548-4.229,1.643s-1.62,2.527-1.62,4.297.54,3.203,1.62,4.298c1.08,1.096,2.489,1.643,4.229,1.643,1.801,0,3.248-.54,4.343-1.62s1.643-2.521,1.643-4.32Z" style="fill: #fff; stroke-width: 0px;"/>
    </g>
  </g>
</svg>